<?xml version="1.0" encoding="UTF-8"?><svg id="a" xmlns="http://www.w3.org/2000/svg" width="48" height="48" viewBox="0 0 48 48"><defs><style>.b{fill:#eee;}.c{fill:#666;}</style></defs><rect class="b" x="0" y=".0003" width="48" height="48"/><g><path class="c" d="M23.9762,23.161c-3.7017,0-6.189-2.8867-6.189-7.1826,0-4.2681,2.4873-7.1362,6.189-7.1362,3.73,0,6.2363,2.8682,6.2363,7.1362,0,4.2959-2.5063,7.1826-6.2363,7.1826Zm0-12.5425c-3.292,0-4.46,2.8872-4.46,5.3594,0,2.6914,1.3789,5.4067,4.46,5.4067,3.292,0,4.46-2.8872,4.46-5.3594,0-2.6914-1.3789-5.4067-4.46-5.4067Z"/><path class="c" d="M15.6461,39.1581c-3.0728,0-5.5732-2.5005-5.5732-5.5737,0-4.9521,3.9902-8.9814,8.895-8.9814h9.978c4.9521,0,8.9814,4.0293,8.9814,8.9814,0,3.0732-2.5005,5.5737-5.5742,5.5737H15.6461Zm3.4077-12.8257c-1.9155,0-3.7222,.752-5.0874,2.1172-1.3657,1.3652-2.1172,3.1719-2.1172,5.0879,0,2.0938,1.7031,3.7974,3.7969,3.7974h16.6602c2.0938,0,3.7969-1.7036,3.7969-3.7974,0-3.9731-3.2319-7.2051-7.2051-7.2051h-9.8442Z"/></g></svg>