<?xml version="1.0" encoding="UTF-8"?><svg id="a" xmlns="http://www.w3.org/2000/svg" width="48" height="48" viewBox="0 0 48 48"><path d="M23.104,43.4c-.467,0-.917-.134-1.303-.387-.168-.11-4.157-2.732-8.347-6.27C7.543,31.751,3.902,27.267,2.633,23.413c-.537-1.379-.811-2.815-.817-4.274-.001-6.606,5.31-11.918,11.839-11.918,3.63,0,7.137,1.731,9.382,4.631l.074,.096,.074-.096c2.243-2.9,5.751-4.631,9.382-4.631,6.528,0,11.84,5.311,11.84,11.84,0,.093-.005,.184-.016,.273-.029,1.401-.303,2.769-.815,4.076-.165,.501-.375,1.023-.625,1.555l-.063,.133h2.785c.457,0,.829,.372,.829,.829,0,.458-.372,.83-.83,.83h-3.643c-1.941,3.061-5.035,6.406-9.274,9.987-4.269,3.605-8.313,6.247-8.352,6.272-.385,.251-.834,.384-1.298,.384ZM13.655,8.881c-5.614,0-10.182,4.567-10.182,10.181,.004,1.325,.243,2.571,.711,3.767,1.18,3.606,4.653,7.846,10.339,12.647,4.173,3.524,8.147,6.125,8.186,6.15,.113,.074,.249,.114,.392,.114,.144,0,.28-.04,.395-.115,.036-.023,3.951-2.573,8.186-6.149,3.658-3.09,6.425-5.974,8.222-8.573l.102-.147h-5.431c-.328,0-.626-.193-.759-.492l-1.662-3.739-4.329,10.98c-.126,.319-.428,.525-.771,.525-.035,0-.07-.002-.105-.006-.376-.048-.671-.344-.718-.72l-1.643-13.144-3.209,6.151c-.143,.275-.425,.446-.735,.446h-6.781c-.457,0-.829-.372-.829-.83s.372-.829,.829-.829h6.278l4.205-8.061c.143-.275,.425-.446,.734-.446,.049,0,.098,.005,.148,.014,.359,.064,.631,.351,.676,.713l1.524,12.194,.179,.023,3.729-9.459c.123-.312,.419-.518,.753-.524h.001c.344,0,.641,.193,.774,.492l2.247,5.055h5.91l.026-.049c.407-.753,.728-1.485,.953-2.176,.468-1.19,.707-2.388,.727-3.611,0-.037,.004-.074,.009-.11,.006-5.704-4.561-10.271-10.175-10.271-3.552,0-6.902,1.906-8.744,4.974-.149,.248-.421,.402-.711,.402s-.562-.154-.711-.402c-1.843-3.068-5.194-4.974-8.744-4.974Z"/></svg>