<?xml version="1.0" encoding="UTF-8"?><svg id="a" xmlns="http://www.w3.org/2000/svg" width="48" height="48" viewBox="0 0 48 48"><path d="M22.992,35.089l-4.656,6.67c-.55,.782-1.407,1.326-2.383,1.512-.232,.044-.468,.066-.704,.066-.689,.001-1.362-.193-1.932-.556-.815-.513-1.363-1.325-1.513-2.237-.155-.91,.094-1.839,.686-2.571l6.405-7.828h0c.296-.361,.846-.427,1.228-.148,.383,.279,.453,.797,.157,1.158l-6.405,7.828c-.3,.373-.424,.847-.341,1.309,.083,.462,.364,.871,.778,1.13,.385,.243,.858,.329,1.311,.239,.517-.098,.972-.385,1.263-.799l4.639-6.679c.269-.372,.804-.471,1.203-.224,.399,.247,.513,.75,.257,1.13h.005ZM41.388,5.557c-1.631-1.096-3.847-1.178-6.234-.226-2.462,1.06-4.57,2.732-6.098,4.837-2.212,2.925-3.248,6.275-2.767,8.961,.106,.622,.048,1.259-.17,1.854-.156,.431,.089,.9,.546,1.047,.457,.147,.954-.084,1.11-.515,.312-.854,.394-1.767,.241-2.657-.398-2.233,.547-5.195,2.466-7.733h0c1.337-1.854,3.183-3.331,5.342-4.272,1.81-.717,3.419-.7,4.538,.053,1.119,.754,1.666,2.18,1.535,4.025h0c-.238,2.231-1.116,4.359-2.54,6.156-1.902,2.542-4.586,4.35-6.955,4.721-.925,.15-1.799,.509-2.545,1.046-.204,.147-.398,.305-.581,.474-.318,.322-.312,.822,.014,1.137,.326,.315,.857,.333,1.206,.041,.138-.123,.284-.237,.437-.342,.519-.375,1.126-.627,1.771-.733,2.855-.449,5.876-2.472,8.092-5.389h0c1.611-2.046,2.601-4.468,2.864-7.004,.157-2.435-.647-4.384-2.269-5.48h0Zm-19.083,14.984c-.041-.068-.041-.151,0-.218,.775-1.651,.569-3.564-.542-5.035L13.955,5.022c-.133-.183-.338-.308-.57-.347-.232-.039-.471,.013-.662,.142-.191,.129-.319,.326-.355,.545-.035,.219,.024,.443,.166,.62l7.799,10.267c.753,.995,.893,2.29,.367,3.407-.147,.305-.205,.643-.165,.976,.039,.334,.173,.651,.388,.919l14.427,17.584h0c.288,.34,.415,.776,.352,1.207-.063,.431-.312,.818-.687,1.071-.375,.253-.844,.35-1.297,.269-.453-.082-.851-.335-1.1-.701l-13.089-18.499c-.199-.281-.474-.506-.797-.651-.323-.145-.682-.205-1.039-.174-1.291,.112-2.55-.427-3.309-1.417L6.598,9.999c-.133-.183-.338-.308-.57-.347-.232-.039-.47,.013-.661,.142-.192,.129-.319,.326-.355,.545-.036,.219,.024,.443,.166,.62l7.795,10.263c1.123,1.467,2.985,2.265,4.897,2.097,.082-.012,.165,.018,.219,.078l13.072,18.495c.513,.733,1.322,1.236,2.238,1.392,.207,.036,.416,.053,.625,.054,.859-.002,1.685-.308,2.317-.856,.631-.548,1.022-1.3,1.094-2.106,.072-.806-.179-1.609-.704-2.249l-14.423-17.585Zm-5.587-2.216c.327,0,.626-.17,.777-.443,.151-.273,.127-.603-.06-.854L10.309,7.436c-.277-.373-.822-.465-1.218-.204-.396,.261-.493,.774-.216,1.148l7.126,9.592h0c.163,.222,.431,.354,.717,.354h0Z"/></svg>