<?xml version="1.0" encoding="UTF-8"?><svg id="a" xmlns="http://www.w3.org/2000/svg" width="48" height="48" viewBox="0 0 48 48"><path d="M24,4C13.507,4,5,12.507,5,23s8.507,19,19,19,19-8.507,19-19S34.493,4,24,4Zm0,36.272c-1.207-1.218-4.385-4.85-5.961-10.503h11.921c-1.576,5.653-4.753,9.285-5.961,10.503Zm-6.327-12.003c-.334-1.576-.547-3.275-.547-5.118,0-1.953,.233-3.757,.603-5.419h12.543c.369,1.662,.601,3.466,.601,5.419,0,1.843-.213,3.542-.547,5.118h-12.655ZM24.001,5.843c1.196,1.235,4.289,4.844,5.887,10.388h-11.773c1.6-5.535,4.691-9.151,5.885-10.388Zm7.81,11.888h8.875c.527,1.664,.814,3.433,.814,5.269s-.287,3.605-.814,5.269h-8.819c.309-1.582,.507-3.279,.507-5.118,0-1.95-.219-3.749-.563-5.419Zm8.325-1.5h-8.679c-1.385-5.177-4.025-8.805-5.633-10.635,6.46,.672,11.885,4.872,14.312,10.635ZM22.175,5.597c-1.608,1.829-4.248,5.458-5.633,10.635H7.864c2.426-5.762,7.852-9.962,14.311-10.635ZM7.314,17.731h8.875c-.344,1.67-.563,3.469-.563,5.419,0,1.839,.198,3.536,.507,5.118H7.314c-.527-1.664-.814-3.433-.814-5.269s.287-3.605,.814-5.269Zm.55,12.038h8.603c1.325,5.149,3.923,8.744,5.573,10.614-6.399-.717-11.766-4.893-14.176-10.614Zm18.096,10.614c1.651-1.87,4.248-5.466,5.573-10.614h8.603c-2.409,5.722-7.777,9.897-14.176,10.614Z"/></svg>