<?xml version="1.0" encoding="UTF-8"?><svg id="a" xmlns="http://www.w3.org/2000/svg" width="342.332" height="342.332" viewBox="0 0 342.332 342.332"><path d="M14.407,282.298c1.691,2.14,4.781,2.545,6.966,.908L240.041,119.998c10.393-7.759,16.901-19.65,17.837-32.586,.934-12.938-3.801-25.641-12.971-34.813-.16-.122-.329-.233-.506-.334-.101-.179-.216-.35-.341-.515-9.172-9.17-21.875-13.905-34.813-12.968-12.938,.934-24.829,7.444-32.588,17.839l-1.91,2.557h.002c-22.444-7.35-46.49-8.314-69.451-2.785-2.7,.713-4.313,3.476-3.601,6.179,.71,2.7,3.476,4.313,6.176,3.601,19.958-4.828,40.836-4.306,60.528,1.512L13.45,275.285c-1.646,2.211-1.221,5.332,.96,7.018l-.002-.005ZM178.405,117.41c2.237,2.241,5.252,3.533,8.417,3.608,3.166,.075,6.239-1.075,8.58-3.21l30.097-27.385c2.488-2.265,3.942-5.452,4.019-8.818,.08-3.366-1.221-6.616-3.601-8.996l-1.357-1.357c-1.976-1.973-5.177-1.973-7.152,0-1.976,1.976-1.976,5.177,0,7.152l1.357,1.357c.423,.426,.656,1.007,.642,1.606-.014,.602-.273,1.169-.717,1.573l-2.331,2.121c-8.918-9.535-19.752-17.075-31.789-22.127l.198-.263c6.002-8.041,15.2-13.079,25.21-13.804,10.007-.722,19.836,2.938,26.932,10.033,.162,.122,.329,.235,.506,.336,.103,.179,.216,.35,.341,.513,7.096,7.096,10.755,16.924,10.033,26.932-.722,10.007-5.76,19.205-13.799,25.208L39.901,256.759,178.412,71.182c11.567,4.546,21.974,11.611,30.467,20.685l-20.287,18.463v-.002c-.87,.79-2.206,.76-3.039-.068-1.976-1.976-5.179-1.976-7.152,0-1.976,1.973-1.976,5.177,0,7.152h.004Z"/><path d="M284.806,288.349c-12.018,7.752-26.175,6.842-40.935-2.641-19.996-12.834-30.688-40.399-26.003-67.031l.002,.002c2.053-10.423,4.671-20.728,7.841-30.867,4.008-12.548,7.072-25.375,9.168-38.378,.372-2.768-1.571-5.313-4.339-5.685-2.768-.369-5.313,1.573-5.685,4.342-2.039,12.496-5,24.824-8.853,36.888-3.272,10.497-5.974,21.16-8.098,31.948-5.369,30.533,7.171,62.316,30.5,77.296,8.601,5.884,18.714,9.163,29.131,9.443,8.086-.005,15.995-2.373,22.752-6.813,18.31-11.806,28.531-37.595,24.85-62.714-.407-2.763-2.975-4.676-5.739-4.269-2.766,.405-4.678,2.975-4.271,5.739,3.126,21.322-5.233,43.014-20.323,52.744v-.005Z"/></svg>