<?xml version="1.0" encoding="utf-8"?>
<!-- Generator: Adobe Illustrator 24.1.0, SVG Export Plug-In . SVG Version: 6.00 Build 0)  -->
<svg version="1.1" id="a" xmlns="http://www.w3.org/2000/svg" xmlns:xlink="http://www.w3.org/1999/xlink" x="0px" y="0px"
	 viewBox="0 0 342.3 210.6" style="enable-background:new 0 0 342.3 210.6;" xml:space="preserve">
<path d="M519.6-158.7c-4.3-3.5-12.8-0.3-19,7.3c-6.1,7.6-7.6,16.6-3.2,20.1c4.3,3.5,12.8,0.3,19-7.3
	C522.5-146.1,524-155.1,519.6-158.7z M512.5-141.2c-3.9,4.8-9.1,7-11.6,5c-2.5-2-1.4-7.6,2.5-12.4c3.9-4.8,9.1-7,11.6-5
	C517.5-151.5,516.4-146,512.5-141.2z"/>
<path d="M22.3,165.3c1.1,1.4,3.1,1.6,4.5,0.6L167.2,61.1c6.7-5,10.9-12.6,11.5-20.9c0.6-8.3-2.4-16.5-8.3-22.4
	c-0.1-0.1-0.2-0.1-0.3-0.2c-0.1-0.1-0.1-0.2-0.2-0.3c-5.9-5.9-14-8.9-22.4-8.3c-8.3,0.6-15.9,4.8-20.9,11.5l-1.2,1.6h0
	c-14.4-4.7-29.9-5.3-44.6-1.8c-1.7,0.5-2.8,2.2-2.3,4c0.5,1.7,2.2,2.8,4,2.3c12.8-3.1,26.2-2.8,38.9,1L21.7,160.8
	C20.7,162.3,20.9,164.3,22.3,165.3L22.3,165.3L22.3,165.3z M150.9,37.5c-5.5-5.6-12-10-19.3-13l0.1-0.2c3.9-5.2,9.8-8.4,16.2-8.9
	c6.4-0.5,12.7,1.9,17.3,6.4c0.1,0.1,0.2,0.2,0.3,0.2c0.1,0.1,0.1,0.2,0.2,0.3c4.6,4.6,6.9,10.9,6.4,17.3c-0.5,6.4-3.7,12.3-8.9,16.2
	l-124.6,93l88.9-119.2c6.7,2.6,12.7,6.5,17.8,11.5l4.3,5.2l4.1-5.4L150.9,37.5z"/>
<path d="M158,104.7c12.6-29.9,6-39.8,4.6-45.3l-6.3,3.4c1.3,8.3,1.6,19.4-4.6,40.1c-2.1,6.7-17.4,52.2-9.7,65.2s39,10.1,54.6-33
	c-1.6-3.2-2.2-4.4-2.2-4.4s-23.5,51.4-44.7,33.3C141.3,150.6,156,111.2,158,104.7z"/>
<path d="M157.7,26.7c-4.3-3.5-12.8-0.3-19,7.3c-6.1,7.6-7.6,16.6-3.2,20.1c4.3,3.5,12.8,0.3,19-7.3S162,30.3,157.7,26.7z
	 M150.5,44.2c-3.9,4.8-9.1,7-11.6,5c-2.5-2-1.4-7.6,2.5-12.4c3.9-4.8,9.1-7,11.6-5C155.5,33.9,154.4,39.4,150.5,44.2z"/>
<g>
	<path d="M235.9,135.1c-1.6,2.1-3.2,3.9-4.6,5.5s-3,2.9-4.5,4c-1.5,1.1-3.1,2-4.7,2.6s-3.3,1.1-5.2,1.4c0,1.4,0,2.6,0,3.6
		c0,1,0,2.2-0.1,3.6c-0.1,1.4-0.3,3.2-0.7,5.5c-0.3,2.2-0.8,5.3-1.6,9.3c-1,5.6-2.1,10.2-3.5,14c-1.4,3.7-2.9,6.7-4.7,9
		c-1.7,2.2-3.7,3.8-5.8,4.8s-4.4,1.4-6.8,1.4c-2.3,0-4.3-0.4-5.8-1.3c-1.5-0.9-2.6-2.4-3.3-4.5c-0.7-2.1-0.9-5.1-0.8-8.8
		c0.2-3.7,0.7-8.4,1.7-14l20.7-117.6c0.6-3.7,1.5-6.8,2.6-9.3c1.1-2.5,2.4-4.6,3.8-6.2c1.4-1.6,3-2.7,4.7-3.4
		c1.7-0.7,3.6-1.1,5.6-1.1c2.4,0,4.4,0.4,6,1.3c1.6,0.9,2.8,2,3.7,3.5c0.9,1.5,1.6,3.2,1.9,5.1c0.3,2,0.5,4,0.4,6.2
		c0,2.1-0.2,4.4-0.5,6.6s-0.6,4.5-1,6.6c-0.4,2.4-0.9,4.9-1.5,7.3c-0.6,2.4-1.4,4.9-2.4,7.7s-2.3,5.7-3.9,8.8
		c-1.6,3.2-3.5,6.8-5.9,10.8L206,120.8l-2.8,15.7c0.5-0.4,1.2-0.8,1.9-1.1c0.7-0.3,1.8-0.5,3.2-0.5c1.5,0,2.6,0.2,3.5,0.7
		c0.9,0.4,1.5,1.1,2.1,1.8c0.5,0.8,0.9,1.7,1.2,2.7c0.3,1.1,0.6,2.2,1,3.4c1.2,0,2.5-0.4,3.9-1.2c1.4-0.8,2.8-1.8,4.1-3
		c1.4-1.2,2.7-2.5,4-4c1.3-1.5,2.4-2.9,3.5-4.3c0.3-0.4,0.6-0.9,0.9-1.3c0.3-0.4,0.6-0.8,1-1.2l1-1.5c0.2-0.4,0.7-0.6,1.2-0.6
		c0.5,0,1,0.1,1.5,0.3c0.5,0.2,1,0.5,1.4,0.8c0.4,0.3,0.7,0.7,1,1.1c0.3,0.4,0.4,0.8,0.3,1.1c0,0.1,0,0.2-0.1,0.4
		c-0.1,0.2-0.5,0.7-1.1,1.5c-0.4,0.5-0.9,1.1-1.3,1.6C236.8,134,236.4,134.6,235.9,135.1z M203.9,170.6c0.5-2.8,1-5.3,1.4-7.3
		c0.4-2.1,0.7-3.9,0.9-5.6c0.2-1.6,0.4-3.2,0.6-4.6c0.1-1.4,0.2-2.9,0.3-4.5c-0.6,0-1.2-0.1-1.7-0.2c-0.5-0.1-1-0.2-1.4-0.4
		s-0.9-0.3-1.2-0.6c-0.4-0.2-0.8-0.6-1.3-1l-5.6,32.2c-0.2,1.4-0.5,2.9-0.8,4.8c-0.3,1.8-0.5,3.5-0.7,5.1c-0.1,1.6-0.1,3,0,4.1
		c0.2,1.1,0.6,1.7,1.4,1.7c0.6,0,1.2-0.4,1.8-1.2c0.6-0.8,1.2-1.9,1.7-3.2c0.6-1.3,1.1-2.9,1.5-4.5c0.5-1.7,0.9-3.4,1.3-5.2
		c0.4-1.8,0.8-3.5,1.1-5.2C203.4,173.4,203.7,171.9,203.9,170.6z M204.5,142.5c0,0.4,0.1,0.7,0.4,0.9c0.3,0.2,0.6,0.4,1,0.5
		c0.4,0.1,0.7,0.2,1.1,0.2c0.3,0,0.6,0.1,0.7,0.1c0-0.3,0.1-0.6,0-1.1c0-0.4-0.1-0.8-0.1-1.2c-0.1-0.4-0.2-0.7-0.4-1
		c-0.2-0.3-0.4-0.4-0.6-0.4c-0.7,0-1.2,0.2-1.5,0.5c-0.3,0.3-0.5,0.7-0.5,1.2c0,0.1,0,0.2,0,0.2
		C204.5,142.3,204.5,142.4,204.5,142.5z M224.4,62.7c0.5-3.1,1-6.1,1.2-9s0.4-5.4,0.3-7.5c-0.1-2.2-0.4-3.9-0.8-5.2
		c-0.5-1.3-1.2-1.9-2.1-1.9c-0.7,0-1.3,0.5-1.8,1.4s-1,2.1-1.4,3.6c-0.4,1.4-0.7,3-1.1,4.7c-0.3,1.7-0.6,3.3-0.9,4.7l-9.6,54.3l8-18
		c1.1-2.5,2-4.8,2.9-7c0.9-2.2,1.6-4.4,2.2-6.5c0.6-2.1,1.2-4.3,1.7-6.5C223.5,67.7,224,65.3,224.4,62.7z"/>
	<path d="M244,148.9c-3.1,0-5.6-0.7-7.4-2.1s-3.1-3.1-3.9-5.2c-0.8-2.1-1.2-4.4-1.3-6.8c0-2.4,0.1-4.7,0.5-6.9l7.8-43.9
		c0.2-1.2,0.5-2.2,0.9-2.9c0.4-0.7,0.9-1.3,1.5-1.6s1.3-0.6,2.1-0.7c0.8-0.1,1.6-0.1,2.5-0.1c0.9,0,1.7,0,2.4,0.1
		c0.7,0.1,1.3,0.3,1.8,0.7s0.8,0.9,1,1.6c0.2,0.7,0.2,1.7,0,2.9l-8,45c-0.2,1.4-0.4,2.9-0.5,4.6s-0.1,3.3,0,4.7
		c0.2,1.5,0.5,2.7,1.1,3.7c0.5,1,1.4,1.5,2.5,1.5c0.8,0,1.7-0.4,2.8-1.1c1.1-0.8,2.3-1.7,3.5-3c1.2-1.2,2.5-2.6,3.7-4
		c1.2-1.5,2.4-2.9,3.5-4.3c0.3-0.4,0.6-0.9,0.9-1.3c0.3-0.4,0.6-0.8,1-1.2l1-1.5c0.2-0.4,0.7-0.6,1.2-0.6c0.5,0,1,0.1,1.5,0.3
		c0.5,0.2,1,0.5,1.4,0.8c0.4,0.3,0.7,0.7,1,1.1c0.3,0.4,0.4,0.8,0.3,1.1c0,0.1,0,0.2-0.1,0.4c-0.1,0.2-0.5,0.7-1.1,1.5
		c-0.4,0.5-0.9,1.1-1.3,1.6c-0.4,0.5-0.8,1.1-1.3,1.6c-1.8,2.2-3.5,4.2-5.1,5.9c-1.6,1.7-3.1,3.2-4.8,4.4s-3.3,2.1-5.1,2.7
		C248.3,148.6,246.3,148.9,244,148.9z M243.3,64c0.3-1.8,1.1-3.2,2.5-4.3c1.4-1.1,2.9-1.7,4.5-1.7c1.7,0,3,0.6,3.9,1.8
		c1,1.2,1.3,2.6,1,4.2c-0.3,1.6-1.1,3-2.4,4.2s-2.8,1.8-4.5,1.8c-1.7,0-3-0.6-4-1.7C243.3,67.1,243,65.7,243.3,64z"/>
	<path d="M278.1,148.9c-2.8,0-5.4-0.4-7.8-1.1c-2.4-0.8-4.3-2.3-5.8-4.5c-1.5-2.2-2.4-5.4-2.7-9.6c-0.4-4.1,0.1-9.6,1.3-16.4
		l10.9-62c0.6-3.5,1.4-6.6,2.3-9.4c0.9-2.7,2-5,3.4-6.8c1.4-1.8,3-3.2,4.8-4.2c1.9-1,4.1-1.4,6.7-1.4c3.1,0,5.5,0.7,7.3,2
		c1.8,1.3,3,3.3,3.7,5.8c0.7,2.5,1,5.6,0.8,9.2c-0.2,3.6-0.7,7.7-1.5,12.2c-0.6,3.6-1.4,6.8-2.2,9.7c-0.9,2.9-1.9,5.8-3,8.5
		c-1.2,2.8-2.5,5.5-4,8.2c-1.5,2.7-3.2,5.7-5,8.8c-1.8,3.1-3.9,6.5-6.1,10.2c-2.2,3.7-4.7,7.8-7.4,12.5c-0.8,4.9-1.3,8.8-1.3,11.8
		c0,3,0.2,5.3,0.8,6.9c0.6,1.6,1.4,2.7,2.6,3.3c1.1,0.5,2.4,0.8,3.8,0.8c1.8,0,3.5-0.4,5.1-1.2s3.2-1.9,4.7-3.2
		c1.5-1.3,3-2.9,4.5-4.7c1.5-1.8,3-3.7,4.6-5.8l1-1.5c0.2-0.4,0.7-0.6,1.2-0.6c0.5,0,1,0.1,1.5,0.3c0.5,0.2,1,0.5,1.4,0.8
		c0.4,0.3,0.7,0.7,1,1.1c0.3,0.4,0.4,0.8,0.3,1.1c0,0.1,0,0.2-0.1,0.4c-0.1,0.2-0.5,0.7-1.1,1.5c-2.3,3-4.4,5.5-6.3,7.7
		c-1.9,2.1-3.9,3.9-5.9,5.3c-2,1.4-4,2.4-6.2,3.1C283.2,148.6,280.8,148.9,278.1,148.9z M292.2,62.7c0.2-1.1,0.4-2.5,0.6-4.1
		c0.2-1.6,0.4-3.3,0.5-5c0.1-1.8,0.2-3.5,0.2-5.3s0-3.3-0.2-4.7c-0.2-1.4-0.5-2.5-0.8-3.4c-0.4-0.9-1-1.3-1.7-1.3
		c-0.6,0-1.1,0.4-1.6,1.1c-0.5,0.7-0.9,1.7-1.3,3c-0.4,1.3-0.8,2.8-1.2,4.6c-0.4,1.8-0.8,3.8-1.2,5.9l-9.5,54.1l6-13.6
		c1.3-3.2,2.5-5.9,3.5-8.2c1-2.3,1.9-4.6,2.6-6.8c0.8-2.2,1.5-4.6,2.1-7.1C291,69.4,291.6,66.3,292.2,62.7z"/>
</g>
</svg>
