<?xml version="1.0" encoding="UTF-8"?><svg id="a" xmlns="http://www.w3.org/2000/svg" width="48" height="63" viewBox="0 0 48 63"><defs><style>.b{fill:#e54e0b;}.c{fill:#ffc9b1;}</style></defs><g><path class="c" d="M23.2197,61.6025l-.2104-.0859c-.7788-.3452-1.4424-.9175-1.9062-1.6499l-5.7949-8.1816c-3.4937-4.9199-6.978-9.8394-10.4541-14.7583-2.1694-3.1104-3.4917-6.7544-3.8213-10.5352-.52-4.8198,.4863-9.5757,2.9082-13.7642,2.4224-4.1875,6.043-7.4312,10.4712-9.3799,3.2793-1.4209,6.5591-2.1416,9.7471-2.1416,5.1753,0,10.0781,1.8696,14.5728,5.5576,2.2446,1.8184,4.0767,4.0254,5.4482,6.562,1.3726,2.5381,2.2158,5.2803,2.5068,8.1494,.7246,5.7656-.771,11.5063-4.2095,16.1768l-15.6934,22.145c-.499,.8364-1.2036,1.457-2.0601,1.8291l-.1719,.0767h-1.3325Z"/><path class="b" d="M24.1598,1.6059h0c5.056,.0002,9.8528,1.8319,14.2601,5.448,2.1903,1.7743,3.9804,3.9308,5.3206,6.4095,1.3404,2.4794,2.1645,5.1583,2.4521,7.9858,.7068,5.6259-.7556,11.2392-4.1281,15.8205-5.2312,7.3793-15.6879,22.1379-15.6879,22.1379l-.0231,.0326-.0204,.0344c-.4234,.712-1.0487,1.2628-1.8167,1.5966l-.0701,.0312h-1.1288l-.0923-.0376c-.7014-.3104-1.2892-.8171-1.6999-1.4656l-.0138-.0219-.015-.0211-5.7813-8.1612c-3.4926-4.9191-6.9769-9.8382-10.4492-14.7519-2.1213-3.0412-3.4129-6.6011-3.7371-10.3152-.5074-4.7034,.4764-9.3544,2.8449-13.4502,2.369-4.0954,5.91-7.2672,10.2348-9.1703,3.218-1.3944,6.4315-2.1015,9.5512-2.1016m-.0008-1c-3.2487,.0001-6.5826,.7258-9.948,2.184-4.4951,1.9779-8.2436,5.3358-10.7029,9.5871C1.0494,16.6289,.0079,21.5524,.5346,26.4352c.338,3.8738,1.6866,7.5908,3.9112,10.78,3.4762,4.9194,6.961,9.8391,10.454,14.7587l5.7806,8.1604c.5151,.8133,1.2598,1.4555,2.14,1.845l.3011,.1231h1.5374l.2644-.1178c.9476-.4118,1.7411-1.111,2.2692-1.9989,0,0,10.4566-14.7584,15.6878-22.1377,3.4989-4.7527,5.0402-10.6674,4.3045-16.5234-.2968-2.9208-1.1684-5.7539-2.5647-8.3367-1.3961-2.5822-3.2896-4.863-5.5708-6.7109C34.4535,2.5061,29.4171,.6057,24.159,.6059h0Z"/></g><path d="M23.9164,35.1797c-.3147,0-.6183-.0903-.8787-.261-.113-.0743-2.803-1.842-5.6283-4.2278-3.9859-3.366-6.441-6.39-7.2969-8.9885-.362-.9296-.5468-1.8982-.5508-2.8819-.0009-4.4547,3.5806-8.0362,7.9831-8.0362,2.4475,0,4.8123,1.1672,6.3262,3.1226l.0497,.0645,.0497-.0645c1.5126-1.9553,3.8778-3.1226,6.3262-3.1226,4.4022,0,7.9837,3.5815,7.9837,7.9837,0,.0626-.0034,.124-.0107,.1839-.0196,.9447-.2045,1.8672-.5498,2.7483-.1114,.338-.253,.6898-.4215,1.0487l-.0424,.0896h1.8783c.3079,0,.5588,.2505,.5591,.5588,0,.3085-.2508,.5594-.5594,.5594h-2.4567c-1.3091,2.0643-3.3952,4.3199-6.2534,6.7342-2.8785,2.4309-5.6056,4.2127-5.632,4.2296-.2597,.1695-.5624,.2591-.8753,.2591Zm-6.3716-23.2766c-3.7857,0-6.8656,3.0796-6.8656,6.865,.0028,.8934,.1639,1.734,.4795,2.5399,.7958,2.4318,3.1376,5.2909,6.9715,8.5283,2.814,2.3765,5.4936,4.1298,5.5203,4.1473,.0764,.05,.1679,.0768,.2643,.0768,.097,0,.1891-.027,.2665-.0777,.0243-.0154,2.6642-1.7349,5.5197-4.1464,2.4668-2.0833,4.3322-4.0285,5.5445-5.7806l.0685-.0989h-3.662c-.221,0-.4218-.1302-.5115-.3319l-1.1206-2.5214-2.919,7.4041c-.0847,.2152-.2886,.3543-.5198,.3543-.0233,0-.0473-.0015-.0709-.0043-.2533-.0322-.4525-.2321-.4845-.4857l-1.108-8.8633-2.1641,4.1477c-.0967,.1854-.2867,.3006-.4958,.3006h-4.5722c-.3082,0-.5591-.2508-.5591-.5594,0-.3082,.2508-.5591,.5591-.5591h4.2333l2.8358-5.4355c.0967-.1854,.2867-.3009,.4952-.3009,.0328,0,.0663,.0031,.0998,.0092,.2422,.0433,.4252,.2367,.4559,.4808l1.0279,8.2225,.121,.0154,2.5144-6.3784c.0829-.2103,.2824-.3491,.5081-.3537h.0009c.2321,0,.4326,.1302,.5222,.3319l1.5151,3.409h3.9852l.0178-.0332c.2745-.5075,.4906-1.0011,.6429-1.4672,.3159-.8022,.4768-1.6106,.4903-2.4349,.0003-.0252,.0025-.0497,.0061-.0743,.0043-3.8462-3.0756-6.9261-6.8613-6.9261-2.395,0-4.6542,1.2851-5.8964,3.354-.1004,.1673-.284,.2714-.4792,.2714-.1956,0-.3792-.1038-.4795-.2711-1.2431-2.0689-3.5023-3.3543-5.8964-3.3543Z"/></svg>