<?xml version="1.0" encoding="UTF-8"?><svg id="a" xmlns="http://www.w3.org/2000/svg" width="48" height="63" viewBox="0 0 48 63"><defs><style>.b{fill:#b8deb6;}.c{fill:#5baa55;}</style></defs><g><path class="b" d="M23.2363,61.6025l-.2095-.0859c-.7793-.3452-1.4434-.9175-1.9072-1.6499l-5.7949-8.1816c-3.4932-4.9199-6.9775-9.8394-10.4541-14.7583-2.1689-3.1104-3.4912-6.7544-3.8213-10.5352-.5195-4.8198,.4868-9.5757,2.9082-13.7642,2.4229-4.188,6.0439-7.4312,10.4717-9.3799,3.2788-1.4209,6.5591-2.1416,9.7466-2.1416,5.1758,0,10.0786,1.8696,14.5732,5.5576,2.2441,1.8184,4.0767,4.0254,5.4482,6.562,1.3721,2.5381,2.2153,5.2803,2.5068,8.1499,.7246,5.7646-.771,11.5054-4.21,16.1763l-15.6929,22.145c-.499,.8359-1.2041,1.457-2.0601,1.8291l-.1719,.0767h-1.333Z"/><path class="c" d="M24.1766,1.6059h0c5.056,.0002,9.8528,1.8319,14.2601,5.448,2.1903,1.7743,3.9804,3.9308,5.3206,6.4095,1.3404,2.4794,2.1645,5.1583,2.4521,7.9858,.7068,5.6259-.7556,11.2392-4.1281,15.8205-5.2312,7.3793-15.6879,22.1379-15.6879,22.1379l-.0231,.0326-.0204,.0344c-.4234,.712-1.0487,1.2628-1.8167,1.5966l-.0701,.0312h-1.1288l-.0923-.0376c-.7014-.3104-1.2892-.8171-1.6998-1.4655l-.0139-.0219-.015-.0211-5.7812-8.1612c-3.4926-4.9191-6.9769-9.8382-10.4492-14.7519-2.1213-3.0412-3.4129-6.6011-3.7371-10.3152-.5074-4.7034,.4764-9.3544,2.8449-13.4502,2.369-4.0954,5.91-7.2672,10.2348-9.1703,3.218-1.3944,6.4315-2.1015,9.5512-2.1016m-.0008-1c-3.2487,.0001-6.5826,.7258-9.948,2.184-4.495,1.9779-8.2436,5.3358-10.7028,9.5871C1.0662,16.6289,.0247,21.5524,.5515,26.4352c.338,3.8738,1.6866,7.5908,3.9112,10.78,3.4762,4.9194,6.961,9.8391,10.454,14.7587l5.7806,8.1604c.5151,.8133,1.2598,1.4555,2.14,1.845l.3011,.1231h1.5374l.2644-.1178c.9476-.4118,1.7411-1.111,2.2692-1.9989,0,0,10.4566-14.7584,15.6878-22.1377,3.4989-4.7527,5.0402-10.6674,4.3045-16.5234-.2968-2.9208-1.1684-5.7539-2.5647-8.3367-1.3961-2.5822-3.2896-4.863-5.5708-6.7109C34.4704,2.5061,29.4339,.6057,24.1758,.6059h0Z"/></g><path d="M22.826,29.345l-3.0144,4.3185c-.3558,.5065-.9109,.8587-1.5426,.9789-.15,.0283-.3029,.0426-.4559,.0428-.4458,.0009-.8817-.1247-1.2509-.3602-.5274-.3321-.8825-.8576-.9793-1.4483-.1001-.5888,.0606-1.1904,.4442-1.6645l4.1465-5.0681h.0002c.1915-.2335,.5475-.2765,.7952-.096,.2478,.1804,.2934,.516,.1019,.7495l-4.1465,5.0681c-.1945,.2417-.2744,.5483-.2207,.8473,.0535,.299,.2359,.5638,.5039,.7318,.2494,.1572,.5554,.2129,.8489,.1549,.3349-.0633,.6292-.2495,.818-.5175l3.0032-4.3239c.1741-.2406,.5208-.305,.7789-.1448,.258,.1602,.332,.4858,.1664,.7316h.003Zm11.91-19.1201c-1.0557-.7095-2.4908-.7629-4.0362-.1466-1.5937,.6862-2.9587,1.7689-3.9482,3.1314-1.4322,1.894-2.103,4.0625-1.7917,5.8016,.0689,.4026,.031,.8149-.1104,1.2003-.1009,.2793,.0575,.5825,.3538,.6777,.2961,.0949,.618-.0544,.7189-.3334,.2018-.5527,.2553-1.1437,.1558-1.7205-.2576-1.4457,.3539-3.3637,1.5965-5.0066h-.0002c.8653-1.2005,2.0609-2.1566,3.4588-2.766,1.1718-.464,2.2134-.4534,2.938,.0346,.7246,.488,1.0784,1.4111,.9935,2.606l-.0002,.0002c-.1544,1.4442-.7228,2.8218-1.6444,3.9851-1.2312,1.6457-2.969,2.8166-4.5031,3.0568-.5992,.0971-1.1645,.3295-1.6474,.6775-.1319,.0949-.2577,.1974-.3765,.3068-.2059,.2082-.202,.5324,.009,.736,.2109,.2039,.5546,.2157,.7807,.0268,.0894-.0795,.1838-.1533,.2832-.2214,.3358-.243,.7291-.406,1.1463-.4748,1.8482-.2908,3.8041-1.6005,5.2393-3.4889h0c1.0433-1.3249,1.6841-2.8925,1.854-4.5347,.1019-1.5763-.419-2.838-1.4691-3.5477l-.0003-.0002Zm-12.3548,9.7013c-.0262-.0438-.0262-.0975,0-.1412,.5017-1.0688,.3684-2.3077-.351-3.2597l-5.0553-6.6471c-.0859-.1187-.219-.1996-.369-.2248-.1501-.0249-.3046,.0082-.4284,.0919-.1238,.0835-.2067,.2108-.2298,.3528-.0229,.142,.0158,.2867,.1074,.4015l5.0494,6.6471c.4875,.6441,.5779,1.4828,.2377,2.206-.0954,.1978-.1324,.4162-.1069,.6322,.0254,.216,.1123,.4215,.2515,.5948l9.3403,11.3846h-.0002c.1864,.2201,.2687,.5026,.2277,.7815-.0411,.2789-.2018,.5295-.4446,.6936-.2427,.1639-.5463,.2268-.8397,.174-.2934-.053-.551-.2171-.7123-.4541l-8.4741-11.9767c-.1286-.1818-.307-.3273-.5163-.4213-.2093-.0938-.4417-.1326-.6725-.1124-.8361,.0727-1.6507-.2762-2.1426-.9175l-5.0409-6.6309c-.0861-.1187-.219-.1996-.3692-.2248-.1501-.0249-.3044,.0082-.4282,.0917-.124,.0837-.2067,.211-.2298,.353-.0231,.142,.0156,.2867,.1072,.4015l5.0466,6.6447c.727,.9498,1.9329,1.4663,3.1702,1.3577,.0533-.0078,.107,.0113,.1415,.0506l8.4629,11.9742c.3319,.4746,.8557,.8005,1.4492,.9015,.1337,.0231,.2691,.0346,.4047,.0348,.556-.0015,1.0912-.1993,1.4999-.5545,.4087-.355,.6615-.8415,.708-1.3636,.0468-.5221-.1159-1.0416-.4559-1.4563l-9.3376-11.3849Zm-3.6174-1.4349c.2115,.0004,.4055-.1103,.5033-.2871,.0975-.1767,.0825-.3902-.0391-.5531l-4.6134-6.2098c-.1791-.2417-.5319-.3009-.7884-.1321-.2563,.1688-.3191,.5012-.14,.743l4.6136,6.2098h-.0002c.1056,.1435,.279,.2291,.4642,.2294h0Z"/></svg>