<?xml version="1.0" encoding="UTF-8"?><svg id="a" xmlns="http://www.w3.org/2000/svg" width="48" height="63" viewBox="0 0 48 63"><defs><style>.b{fill:#ffe894;}.c{fill:#d08900;}</style></defs><g><path class="b" d="M23.22,61.603l-.21-.086c-.779-.345-1.442-.917-1.906-1.65l-5.795-8.182c-3.494-4.92-6.978-9.839-10.454-14.758-2.169-3.11-3.492-6.754-3.821-10.535-.52-4.82,.486-9.576,2.908-13.764,2.422-4.188,6.043-7.431,10.471-9.38,3.279-1.421,6.559-2.142,9.747-2.142,5.175,0,10.078,1.87,14.573,5.558,2.245,1.818,4.077,4.025,5.448,6.562,1.373,2.538,2.216,5.28,2.507,8.149,.725,5.766-.771,11.506-4.209,16.177l-15.693,22.145c-.499,.836-1.204,1.457-2.06,1.829l-.172,.077h-1.333Z"/><path class="c" d="M24.16,1.606h0c5.056,0,9.853,1.832,14.26,5.448,2.19,1.774,3.98,3.931,5.321,6.409,1.34,2.479,2.165,5.158,2.452,7.986,.707,5.626-.756,11.239-4.128,15.82-5.231,7.379-15.688,22.138-15.688,22.138l-.023,.033-.02,.034c-.423,.712-1.049,1.263-1.817,1.597l-.07,.031h-1.129l-.092-.038c-.701-.31-1.289-.817-1.7-1.466l-.014-.022-.015-.021-5.781-8.161c-3.493-4.919-6.977-9.838-10.449-14.752-2.121-3.041-3.413-6.601-3.737-10.315-.507-4.703,.476-9.354,2.845-13.45,2.369-4.095,5.91-7.267,10.235-9.17,3.218-1.394,6.432-2.101,9.551-2.102m0-1c-3.249,0-6.583,.726-9.948,2.184-4.495,1.978-8.244,5.336-10.703,9.587C1.049,16.629,.008,21.552,.535,26.435c.338,3.874,1.687,7.591,3.911,10.78,3.476,4.919,6.961,9.839,10.454,14.759l5.781,8.16c.515,.813,1.26,1.455,2.14,1.845l.301,.123h1.537l.264-.118c.948-.412,1.741-1.111,2.269-1.999,0,0,10.457-14.758,15.688-22.138,3.499-4.753,5.04-10.667,4.305-16.523-.297-2.921-1.168-5.754-2.565-8.337-1.396-2.582-3.29-4.863-5.571-6.711C34.454,2.506,29.417,.606,24.159,.606h0Z"/></g><path d="M37.924,32.188c-.309,0-.56-.251-.56-.559v-4.718H10.778v4.718c0,.308-.251,.559-.56,.559s-.56-.251-.56-.559V14.478c0-.309,.251-.56,.56-.56s.56,.251,.56,.56v3.398h7.41c.838,.003,1.627,.332,2.22,.925s.921,1.382,.925,2.221v.812h16.592c.149,0,.289,.058,.395,.164,.106,.106,.164,.247,.164,.396v9.236c0,.308-.251,.559-.56,.559Zm-27.145-6.396h26.586v-2.839H10.779v2.839Zm0-3.958h9.436v-.812c-.004-.543-.229-1.071-.617-1.449-.382-.373-.887-.578-1.422-.578h-7.396v2.839Z"/></svg>