<?xml version="1.0" encoding="UTF-8"?><svg id="a" xmlns="http://www.w3.org/2000/svg" width="48" height="63" viewBox="0 0 48 63"><defs><style>.b{fill:#ffe894;}.c{fill:#d08900;}</style></defs><g><path class="b" d="M23.2197,61.6025l-.2104-.0859c-.7788-.3452-1.4424-.9175-1.9062-1.6499l-5.7949-8.1816c-3.4937-4.9199-6.978-9.8394-10.4541-14.7583-2.1694-3.1104-3.4917-6.7544-3.8213-10.5352-.52-4.8198,.4863-9.5757,2.9082-13.7642,2.4224-4.1875,6.043-7.4312,10.4712-9.3799,3.2793-1.4209,6.5591-2.1416,9.7471-2.1416,5.1753,0,10.0781,1.8696,14.5728,5.5576,2.2446,1.8184,4.0767,4.0254,5.4482,6.562,1.3726,2.5381,2.2158,5.2803,2.5068,8.1494,.7246,5.7656-.771,11.5063-4.2095,16.1768l-15.6934,22.145c-.499,.8364-1.2036,1.457-2.0601,1.8291l-.1719,.0767h-1.3325Z"/><path class="c" d="M24.1598,1.6059h0c5.056,.0002,9.8528,1.8319,14.2601,5.448,2.1903,1.7743,3.9804,3.9308,5.3206,6.4095,1.3404,2.4795,2.1645,5.1584,2.4521,7.9858,.7067,5.6259-.7556,11.2392-4.1281,15.8205-5.2312,7.3793-15.6879,22.1379-15.6879,22.1379l-.0231,.0326-.0204,.0344c-.4234,.712-1.0487,1.2628-1.8167,1.5966l-.0701,.0312h-1.1288l-.0923-.0376c-.7014-.3104-1.2892-.8171-1.6999-1.4655l-.0138-.0219-.015-.0211-5.7813-8.1612c-3.4926-4.9191-6.9769-9.8382-10.4492-14.7519-2.1213-3.0412-3.4129-6.6011-3.7371-10.3152-.5074-4.7034,.4764-9.3544,2.8449-13.4502,2.369-4.0954,5.91-7.2672,10.2348-9.1703,3.218-1.3944,6.4315-2.1015,9.5512-2.1016m-.0008-1c-3.2487,.0001-6.5826,.7258-9.948,2.184-4.495,1.9779-8.2436,5.3358-10.7028,9.5871C1.0494,16.6289,.0079,21.5524,.5346,26.4352c.338,3.8738,1.6866,7.5908,3.9112,10.78,3.4762,4.9194,6.961,9.8391,10.454,14.7587l5.7806,8.1604c.5151,.8133,1.2598,1.4555,2.14,1.845l.3011,.1231h1.5374l.2644-.1178c.9476-.4118,1.7411-1.111,2.2692-1.9989,0,0,10.4566-14.7584,15.6878-22.1377,3.499-4.7527,5.0402-10.6674,4.3045-16.5234-.2968-2.9208-1.1684-5.7539-2.5647-8.3367-1.3961-2.5822-3.2896-4.863-5.5708-6.7109C34.4535,2.5061,29.4171,.6057,24.159,.6059h0Z"/></g><g><path d="M23.6149,21.0738c-1.6344,0-2.9643-1.3298-2.9643-2.9643s1.3298-2.9643,2.9643-2.9643,2.9643,1.3298,2.9643,2.9643-1.3298,2.9643-2.9643,2.9643Zm0-4.7576c-.9925,0-1.7998,.8073-1.7998,1.7998s.8073,1.7998,1.7998,1.7998,1.7998-.8073,1.7998-1.7998-.8073-1.7998-1.7998-1.7998Z"/><path d="M23.6148,21.008c-1.5982,0-2.8985-1.3003-2.8985-2.8985s1.3003-2.8985,2.8985-2.8985,2.8985,1.3003,2.8985,2.8985-1.3003,2.8985-2.8985,2.8985Zm0-4.7576c-1.0288,0-1.8656,.8368-1.8656,1.8656s.8368,1.8656,1.8656,1.8656,1.8656-.8368,1.8656-1.8656-.8368-1.8656-1.8656-1.8656Z"/><path d="M13.9327,34.1128c-.2895,0-.5165-.2269-.5165-.5165v-14.839l-.4253,.2456c-.2876,.1611-.5983,.243-.9225,.243-.6561,0-1.265-.3512-1.5889-.9167l-.1345-.2369c-.2446-.4266-.3078-.9225-.1781-1.3972,.1281-.4696,.4311-.8602,.8525-1.1l11.6533-6.7304c.2777-.1592,.5935-.2436,.9132-.2436h.069c.3136,0,.6291,.0838,.9119,.2423l11.6568,6.7323c.4202,.242,.7225,.6355,.8512,1.1084,.129,.4725,.0655,.9658-.1785,1.3895l-.1338,.2353c-.243,.4211-.6372,.7241-1.1096,.8525-.1582,.0433-.3203,.0652-.4818,.0652-.3168,0-.6304-.0841-.9071-.2436l-.4519-.261v3.0009l.1043-.0754c.4982-.3608,1.0952-.536,1.8251-.536,1.6367,0,2.9685,1.1456,2.9685,2.5537,0,2.2889-2.7024,4.5246-4.8741,6.3208l-.0238,3.5594c.0026,.1538-.051,.2937-.1515,.3961-.096,.0976-.2257,.1515-.365,.1515H13.9327Zm12.5559-8.9005c.2895,0,.5165,.2269,.5165,.5165v7.3515h5.7742v-3.0066c-2.201-1.8572-4.9107-4.1054-4.9107-6.3885,0-1.4082,1.3318-2.5537,2.9685-2.5537,.7367,0,1.3379,.1775,1.8376,.5425l.1046,.0764v-3.6043l-9.1191-5.2619-9.2109,5.2773v14.919h5.7819v-7.3515c0-.2895,.2269-.5165,.5165-.5165h5.7411Zm-5.2246,7.8679h4.7082v-6.835h-4.7082v6.835Zm9.5794-10.916c-1.0673,0-1.9355,.6824-1.9355,1.5208,0,1.7908,2.5159,3.8797,4.3525,5.405l.042,.0347,.042-.0347c1.8341-1.5227,4.3458-3.6085,4.3458-5.4054,0-.8387-.8686-1.5211-1.9358-1.5211-.9437,0-1.4319,.3104-2.0081,1.2772l-.0671,.0735c-.0189,.0244-.0437,.0491-.079,.0754l-.0729,.0469c-.0674,.0392-.1486,.0607-.2317,.0607-.2151,0-.4038-.1297-.4808-.3303-.5601-.902-1.056-1.2027-1.9715-1.2027Zm-7.2289-10.4124c.0883,0,.1769,.0234,.2565,.068l10.8967,6.2919c.1184,.069,.2533,.1056,.389,.1056,.0716,0,.1435-.01,.2138-.0295,.2093-.0575,.3829-.1884,.4879-.3688l.1332-.2346c.1062-.1823,.1338-.3971,.077-.6034-.0575-.2099-.1887-.3836-.3691-.4889l-11.6539-6.7307c-.1265-.0706-.2709-.1079-.4182-.1079-.1858,0-.3203,.0366-.4343,.1056l-11.6581,6.7329c-.1903,.1111-.3175,.278-.3672,.4824-.0523,.2151-.026,.4263,.0767,.6112l.1332,.2346c.1425,.2452,.408,.3971,.6927,.3971,.1393,0,.277-.0369,.3983-.1066l1.1835-.684c.0173-.0128,.0539-.0376,.1005-.0546l9.6038-5.5511c.0802-.0453,.1698-.0693,.2581-.0693Z"/></g></svg>