<?xml version="1.0" encoding="UTF-8"?><svg id="a" xmlns="http://www.w3.org/2000/svg" width="48" height="48" viewBox="0 0 48 48"><path d="M22.797,23.554c-2.486,0-4.509-2.023-4.509-4.509s2.023-4.509,4.509-4.509,4.509,2.023,4.509,4.509-2.023,4.509-4.509,4.509Zm0-7.237c-1.51,0-2.738,1.228-2.738,2.738s1.228,2.738,2.738,2.738,2.738-1.228,2.738-2.738-1.228-2.738-2.738-2.738Z"/><path d="M22.797,23.454c-2.431,0-4.409-1.978-4.409-4.409s1.978-4.409,4.409-4.409,4.409,1.978,4.409,4.409-1.978,4.409-4.409,4.409Zm0-7.237c-1.565,0-2.838,1.273-2.838,2.838s1.273,2.838,2.838,2.838,2.838-1.273,2.838-2.838-1.273-2.838-2.838-2.838Z"/><path d="M8.069,43.389c-.44,0-.786-.345-.786-.786V20.03l-.647,.374c-.438,.245-.91,.37-1.403,.37-.998,0-1.924-.534-2.417-1.395l-.205-.36c-.372-.649-.468-1.403-.271-2.125,.195-.714,.656-1.309,1.297-1.673L21.364,4.981c.422-.242,.903-.371,1.389-.371h.105c.477,0,.957,.127,1.387,.369l17.732,10.241c.639,.368,1.099,.967,1.295,1.686,.196,.719,.1,1.469-.271,2.114l-.204,.358c-.37,.641-.969,1.102-1.688,1.297-.241,.066-.487,.099-.733,.099-.482,0-.959-.128-1.38-.371l-.688-.397v4.565l.159-.115c.758-.549,1.666-.815,2.776-.815,2.49,0,4.516,1.743,4.516,3.885,0,3.482-4.111,6.883-7.415,9.615l-.036,5.415c.004,.234-.078,.447-.23,.603-.146,.148-.343,.23-.555,.23H8.069Zm19.1-13.54c.44,0,.786,.345,.786,.786v11.183h8.784v-4.574c-3.348-2.825-7.47-6.245-7.47-9.718,0-2.142,2.026-3.885,4.516-3.885,1.121,0,2.035,.27,2.795,.825l.159,.116v-5.483l-13.872-8.004-14.012,8.028v22.695h8.795v-11.183c0-.44,.345-.786,.786-.786h8.733Zm-7.948,11.969h7.162v-10.397h-7.162v10.397Zm14.572-16.605c-1.624,0-2.944,1.038-2.944,2.313,0,2.724,3.827,5.902,6.621,8.222l.064,.053,.064-.053c2.79-2.316,6.611-5.489,6.611-8.223,0-1.276-1.321-2.314-2.945-2.314-1.436,0-2.178,.472-3.055,1.943l-.102,.112c-.029,.037-.066,.075-.12,.115l-.111,.071c-.103,.06-.226,.092-.353,.092-.327,0-.614-.197-.731-.502-.852-1.372-1.606-1.83-2.999-1.83Zm-10.997-15.839c.134,0,.269,.036,.39,.104l16.576,9.571c.18,.105,.385,.161,.592,.161,.109,0,.218-.015,.325-.045,.318-.087,.583-.287,.742-.561l.203-.357c.162-.277,.204-.604,.117-.918-.087-.319-.287-.583-.562-.744L23.452,6.346c-.192-.107-.412-.164-.636-.164-.283,0-.487,.056-.661,.161L4.421,16.584c-.29,.169-.483,.423-.559,.734-.08,.327-.04,.648,.117,.93l.203,.357c.217,.373,.621,.604,1.054,.604,.212,0,.421-.056,.606-.162l1.8-1.041c.026-.02,.082-.057,.153-.083l14.609-8.444c.122-.069,.258-.105,.393-.105Z"/></svg>