<?xml version="1.0" encoding="UTF-8"?><svg id="a" xmlns="http://www.w3.org/2000/svg" width="48" height="48" viewBox="0 0 48 48"><path d="M43.539,36.926c-.458,0-.83-.373-.83-.83v-6.613H5.292v6.613c0,.458-.373,.83-.831,.83s-.83-.373-.83-.83V11.904c0-.458,.373-.83,.83-.83s.831,.373,.831,.83v4.752H15.701c1.194,.005,2.316,.472,3.161,1.317,.845,.844,1.312,1.967,1.317,3.161v1.105h23.362c.218,0,.431,.088,.585,.243,.157,.157,.243,.366,.243,.587v13.026c0,.458-.373,.83-.831,.83ZM5.292,27.822H42.709v-3.922H5.292v3.922Zm0-5.583h13.226v-1.105c-.004-.753-.317-1.487-.857-2.014-.533-.518-1.235-.804-1.979-.804H5.292v3.923Z"/></svg>