<?xml version="1.0" encoding="UTF-8"?><svg id="a" xmlns="http://www.w3.org/2000/svg" width="48" height="48" viewBox="0 0 48 48"><path d="M28.077,26.877c0-.876-.329-1.72-.924-2.364l3.961-5.448h0c.255-.351,.177-.842-.173-1.097-.35-.255-.842-.177-1.097,.173l-3.999,5.471c-.939-.376-1.993-.329-2.895,.127-.902,.456-1.564,1.279-1.817,2.257-.253,.979-.074,2.019,.493,2.856,.567,.837,1.467,1.389,2.469,1.517,1.003,.128,2.012-.183,2.77-.851,.758-.668,1.192-1.631,1.192-2.642h.019Zm-5.462,0c0-.517,.205-1.012,.571-1.378,.366-.365,.861-.57,1.378-.57s1.012,.205,1.378,.57c.365,.366,.571,.861,.571,1.378s-.205,1.013-.571,1.378c-.366,.366-.861,.571-1.378,.571-.516-.001-1.011-.207-1.377-.572-.365-.365-.571-.86-.572-1.377h0Z"/><path d="M43.208,17.028l-2.064-3.186c-.112-.176-.29-.299-.494-.342-.204-.044-.416-.006-.591,.106l-2.553,1.621c-1.507-1.725-3.348-3.126-5.411-4.121-2.063-.994-4.306-1.561-6.594-1.665v-.582h3.232c.434,0,.785-.351,.785-.785v-2.733c0-.434-.352-.785-.785-.785h-8.089c-.211-.004-.414,.077-.564,.225-.15,.148-.235,.349-.235,.56v2.733c0,.434,.351,.785,.785,.785h3.301v4.294c0,.434,.351,.785,.785,.785s.785-.351,.785-.785v-2.133c2.769,.141,5.447,1.028,7.752,2.567l-1.404,1.824c-.263,.345-.2,.837,.143,1.103,.134,.1,.295,.157,.462,.162,.245,0,.475-.115,.624-.309l1.417-1.847h0c2.128,1.736,3.755,4.007,4.714,6.579l-2.309,.692c-.366,.116-.595,.481-.539,.861s.377,.665,.761,.672c.077,0,.153-.01,.226-.032l2.35-.679c.675,2.626,.645,5.382-.088,7.993l-2.276-.854c-.398-.126-.825,.082-.971,.473-.146,.391,.039,.828,.422,.995l2.309,.873h0c-1.017,2.563-2.701,4.809-4.876,6.505l-1.385-1.847c-.269-.301-.723-.349-1.05-.11-.326,.239-.417,.686-.211,1.034l1.348,1.847h0c-2.228,1.408-4.783,2.216-7.415,2.346v-2.285c0-.434-.352-.785-.785-.785s-.785,.351-.785,.785v3.075c0,.434,.351,.785,.785,.785,3.763,.003,7.421-1.242,10.399-3.541,2.979-2.299,5.112-5.521,6.063-9.161,.951-3.641,.668-7.494-.805-10.957l2.595-1.672h0c.175-.112,.298-.29,.342-.493,.044-.204,.006-.416-.107-.591h0ZM21.428,6.127h6.538v1.164h-6.538v-1.164Zm18.27,12.236c-.355-.658-.754-1.29-1.196-1.893l1.755-1.136,1.214,1.884-1.773,1.145Z"/><path d="M18.086,11.473h-4.442c-.434,0-.785,.352-.785,.785s.351,.785,.785,.785h4.442c.434,0,.785-.351,.785-.785s-.351-.785-.785-.785Z"/><path d="M18.086,39.819h-4.442c-.434,0-.785,.351-.785,.785s.351,.785,.785,.785h4.442c.434,0,.785-.351,.785-.785s-.351-.785-.785-.785Z"/><path d="M18.086,35.081H9.313c-.434,0-.785,.352-.785,.785s.351,.785,.785,.785h8.773c.434,0,.785-.351,.785-.785s-.351-.785-.785-.785Z"/><path d="M18.086,30.372H6.774c-.434,0-.785,.351-.785,.785s.351,.785,.785,.785h11.312c.434,0,.785-.351,.785-.785s-.351-.785-.785-.785Z"/><path d="M18.086,16.201H9.313c-.434,0-.785,.352-.785,.785s.351,.785,.785,.785h8.773c.434,0,.785-.351,.785-.785s-.351-.785-.785-.785Z"/><path d="M18.086,20.925H6.774c-.434,0-.785,.351-.785,.785s.351,.785,.785,.785h11.312c.434,0,.785-.351,.785-.785s-.351-.785-.785-.785h0Z"/><path d="M18.086,25.648H5.453c-.434,0-.785,.351-.785,.785s.351,.785,.785,.785h12.633c.434,0,.785-.351,.785-.785s-.351-.785-.785-.785Z"/></svg>